<?xml version="1.0" encoding="UTF-8"?>
<svg xmlns="http://www.w3.org/2000/svg" version="1.1" viewBox="0 0 313.24 289.71">
  <defs>
    <style>
      .cls-1, .cls-2, .cls-3 {
        fill: none;
      }

      .cls-4 {
        fill: #231815;
      }

      .cls-5 {
        fill: #297b39;
      }

      .cls-2, .cls-6 {
        stroke: #231815;
      }

      .cls-2, .cls-6, .cls-3 {
        stroke-miterlimit: 10;
      }

      .cls-6 {
        fill: #fff;
      }

      .cls-3 {
        stroke: #3a9439;
        stroke-width: 2px;
      }
    </style>
  </defs>
  <!-- Generator: Adobe Illustrator 28.7.2, SVG Export Plug-In . SVG Version: 1.2.0 Build 154)  -->
  <g>
    <g id="_レイヤー_1" data-name="レイヤー_1">
      <g>
        <ellipse class="cls-6" cx="166.91" cy="167.65" rx="16.91" ry="23.53"/>
        <path class="cls-6" d="M166.91,191.18s-44.85,38.54,0,78.83c0,0,40.44-33.24,0-78.83Z"/>
        <path class="cls-6" d="M166.91,270s-40.44-30.3-84.56-21.47c0,0-1.47,45.89,84.56,21.47Z"/>
        <path class="cls-6" d="M166.91,270s39.03-30.3,81.62-21.47c0,0,1.42,45.89-81.62,21.47Z"/>
        <path class="cls-6" d="M150,208.82s-41.67-30.88,15.93-98.53c0,0-99.75,72.06-15.93,98.53Z"/>
        <path class="cls-6" d="M181.17,208.82s39.85-30.88-15.24-98.53c0,0,95.4,72.06,15.24,98.53Z"/>
      </g>
      <g>
        <ellipse class="cls-5" cx="159.07" cy="167.65" rx="16.91" ry="23.53"/>
        <path class="cls-5" d="M159.07,191.18s-44.85,38.54,0,78.83c0,0,40.44-33.24,0-78.83Z"/>
        <path class="cls-5" d="M159.07,270s-40.44-30.3-84.56-21.47c0,0-1.47,45.89,84.56,21.47Z"/>
        <path class="cls-5" d="M159.07,270s39.03-30.3,81.62-21.47c0,0,1.42,45.89-81.62,21.47Z"/>
        <path class="cls-5" d="M142.16,208.82s-41.67-30.88,15.93-98.53c0,0-99.75,72.06-15.93,98.53Z"/>
        <path class="cls-5" d="M173.33,208.82s39.85-30.88-15.24-98.53c0,0,95.4,72.06,15.24,98.53Z"/>
      </g>
      <g>
        <g>
          <path class="cls-2" d="M224.19,222.9s-12.63-30.88,19.65-44.12c0,0,36.5,2.94,30.88-30.88"/>
          <path class="cls-2" d="M224.19,179.31s-12.63-30.88,19.65-44.12c0,0,36.5,2.94,30.88-30.88"/>
        </g>
        <path class="cls-3" d="M224.19,230.99s-12.63-30.88,19.65-44.12c0,0,36.5,2.94,30.88-30.88"/>
        <path class="cls-3" d="M224.19,187.4s-12.63-30.88,19.65-44.12c0,0,36.5,2.94,30.88-30.88"/>
      </g>
      <g>
        <g>
          <path class="cls-2" d="M100.01,214.81s13.23-30.88-20.59-44.12c0,0-38.23,2.94-32.35-30.88"/>
          <path class="cls-2" d="M100.01,171.22s13.23-30.88-20.59-44.12c0,0-38.23,2.94-32.35-30.88"/>
        </g>
        <path class="cls-3" d="M100.01,222.9s13.23-30.88-20.59-44.12c0,0-38.23,2.94-32.35-30.88"/>
        <path class="cls-3" d="M100.01,179.31s13.23-30.88-20.59-44.12c0,0-38.23,2.94-32.35-30.88"/>
      </g>
      <g>
        <circle class="cls-1" cx="158.09" cy="179.31" r="139.06"/>
        <path class="cls-4" d="M44.16,98.15l-5.38,9.62-1.09-.61c.18-.35.4-.82.64-1.4.24-.58.37-1.01.37-1.27-.02-.43-.11-.78-.28-1.07-.17-.29-.44-.54-.82-.75l-15.83-8.86-.13.23,14.39,17.8-.43.77-22.88-3.52-.11.2,12.99,7.27c1.26.7,2.26,1.16,3,1.37s1.35.23,1.82.06c.34-.1.81-.46,1.39-1.05.59-.6.95-1,1.08-1.21l1.09.61-4.92,8.79-1.09-.61c.22-.48.41-1.01.58-1.58.17-.57.22-1.05.15-1.46-.09-.52-.39-1.01-.91-1.47-.52-.46-1.47-1.09-2.87-1.87l-11.14-6.23c-.64-.36-1.21-.58-1.71-.65s-.95-.04-1.37.1c-.45.16-.88.44-1.27.82s-.72.8-.99,1.24l-1.09-.61,4.15-7.42,19.83,2.91-10.69-12.97c-.39-.48-.82-.93-1.29-1.38-.47-.44-.79-.72-.97-.84l3.97-7.1,1.09.61c-.15.29-.31.68-.48,1.17-.17.49-.27.86-.32,1.1-.07.42,0,.77.22,1.05.22.28.5.52.83.71l15.69,8.78c.36.2.69.31,1.01.32.31.02.66-.1,1.04-.35.21-.13.48-.4.83-.82.35-.42.61-.77.77-1.04l1.09.61Z"/>
        <path class="cls-4" d="M49.7,78.27c.94.78,1.74,1.69,2.4,2.74.66,1.05,1.08,2.11,1.25,3.19.2,1.22.14,2.39-.19,3.5-.33,1.11-.92,2.18-1.76,3.2-.7.85-1.53,1.52-2.49,2.03-.96.5-1.99.8-3.1.88-1.09.09-2.22-.06-3.37-.43-1.16-.37-2.28-1.01-3.36-1.91-2.08-1.73-3.29-3.75-3.6-6.06-.32-2.31.34-4.46,1.97-6.42,1.55-1.87,3.46-2.89,5.72-3.06,2.27-.17,4.45.61,6.54,2.35ZM47.4,81.1c-.68-.56-1.45-1.09-2.31-1.57s-1.67-.81-2.42-.98c-.8-.17-1.56-.17-2.29.02-.73.19-1.37.62-1.94,1.3-.58.7-.9,1.43-.96,2.21s.07,1.57.41,2.37c.31.75.77,1.47,1.38,2.17.61.7,1.24,1.32,1.9,1.87.87.72,1.73,1.31,2.58,1.78.85.47,1.69.79,2.53.96.83.17,1.61.16,2.32-.03.71-.19,1.36-.63,1.93-1.32.94-1.13,1.13-2.48.59-4.04-.54-1.56-1.78-3.14-3.7-4.74Z"/>
        <path class="cls-4" d="M64.13,64.73c.83.9,1.49,1.91,2.01,3.04.51,1.13.78,2.24.81,3.32.04,1.24-.18,2.39-.66,3.45-.48,1.06-1.2,2.04-2.18,2.94-.81.75-1.72,1.3-2.74,1.67-1.01.37-2.08.52-3.19.46-1.09-.06-2.19-.35-3.29-.88-1.1-.53-2.12-1.31-3.08-2.34-1.83-1.99-2.75-4.16-2.76-6.49,0-2.34.93-4.37,2.81-6.1,1.79-1.64,3.81-2.4,6.08-2.26,2.27.13,4.32,1.2,6.16,3.2ZM61.48,67.22c-.59-.65-1.29-1.27-2.08-1.87-.79-.6-1.55-1.03-2.27-1.29-.77-.28-1.53-.38-2.27-.29s-1.44.43-2.09,1.03c-.67.61-1.08,1.3-1.25,2.06-.17.76-.14,1.56.09,2.4.21.78.56,1.56,1.07,2.33.51.78,1.05,1.48,1.63,2.11.76.83,1.53,1.53,2.31,2.11.78.58,1.57,1.01,2.37,1.29s1.57.37,2.3.28c.73-.09,1.43-.44,2.09-1.05,1.08-.99,1.46-2.3,1.13-3.93-.33-1.62-1.34-3.35-3.03-5.19Z"/>
        <path class="cls-4" d="M87.17,59.28l-6.98,4.8-.66-.95c.21-.17.44-.36.69-.56s.45-.39.58-.57c.21-.27.31-.56.29-.87s-.15-.63-.39-.98l-5.05-7.34c-.7-1.01-1.48-1.63-2.33-1.85-.86-.22-1.63-.09-2.32.38-.51.35-.93.76-1.24,1.21-.32.45-.56.91-.73,1.37-.17.44-.26.86-.27,1.24-.01.39,0,.69,0,.9l5.65,8.21c.23.33.48.55.76.67.28.12.6.14.95.07.27-.04.54-.12.81-.24.27-.12.54-.25.8-.4l.66.96-6.99,4.81-.66-.96c.21-.17.42-.35.65-.53.22-.18.4-.36.54-.54.21-.27.31-.56.29-.87s-.15-.63-.39-.98l-6.06-8.81c-.23-.33-.5-.58-.83-.76-.33-.18-.68-.27-1.05-.27-.26.01-.54.08-.83.2-.29.12-.58.27-.89.45l-.66-.96,4.53-3.59.34.06,1.39,2.01.07-.05c.07-.39.17-.87.3-1.43.12-.56.27-1.05.44-1.47.2-.48.49-.96.88-1.46s.89-.95,1.51-1.38c1.37-.94,2.68-1.22,3.93-.82,1.25.4,2.36,1.31,3.34,2.73l5.11,7.43c.23.34.48.57.74.7s.57.15.93.08c.3-.06.55-.13.74-.21.2-.08.45-.21.76-.4l.66.96Z"/>
        <path class="cls-4" d="M88.15,30.55c.25.47.33.93.26,1.38-.08.45-.37.81-.88,1.08-.32.17-.64.25-.95.25-.32,0-.64-.07-.96-.18-.33-.12-.66-.27-.99-.47-.33-.2-.6-.35-.82-.46-.68.4-.96,1.17-.84,2.3.12,1.14.72,2.73,1.81,4.77l.83,1.56,3.94-2.1.79,1.49-3.94,2.1,5.85,10.98c.19.36.42.62.68.77.26.15.57.21.93.16.3-.04.67-.14,1.11-.3.44-.16.82-.31,1.13-.45l.54,1.02-8.07,4.3-.55-1.02c.23-.15.46-.3.7-.46.24-.16.44-.31.59-.47.24-.25.37-.52.38-.83.02-.31-.08-.65-.27-1.02l-5.93-11.14-3.03,1.61-.79-1.49,3.02-1.61-.52-.98c-1.24-2.32-1.64-4.52-1.2-6.61.44-2.08,1.56-3.6,3.37-4.57.92-.49,1.71-.68,2.37-.56.66.11,1.12.43,1.4.95Z"/>
        <path class="cls-4" d="M105.97,50.31l-7.74,3.4-.47-1.06c.24-.13.49-.27.76-.42.27-.15.48-.29.64-.43.26-.23.41-.5.45-.8.04-.31-.02-.65-.19-1.04l-8.08-18.39c-.17-.39-.41-.71-.73-.98-.32-.26-.65-.44-1-.51-.25-.04-.66,0-1.22.11-.56.12-1,.24-1.32.35l-.45-1.03,5.82-2.98.33.14,9.56,21.77c.17.38.37.65.62.83.25.18.55.27.92.26.28,0,.55-.02.81-.07.25-.05.53-.12.83-.23l.47,1.06Z"/>
        <path class="cls-4" d="M120.77,35.94c.37,1.16.56,2.36.55,3.6s-.23,2.36-.65,3.36c-.48,1.14-1.16,2.09-2.04,2.85-.88.76-1.95,1.35-3.21,1.75-1.05.34-2.11.46-3.19.37-1.08-.09-2.11-.4-3.09-.92-.97-.51-1.84-1.24-2.62-2.18-.78-.94-1.38-2.08-1.81-3.41-.83-2.58-.76-4.93.21-7.05.97-2.12,2.68-3.58,5.11-4.36,2.31-.75,4.47-.58,6.47.49,2,1.07,3.42,2.9,4.26,5.49ZM117.32,37.09c-.27-.84-.64-1.69-1.11-2.57-.47-.88-.97-1.58-1.52-2.12-.58-.58-1.23-.98-1.95-1.21-.72-.23-1.49-.21-2.33.06-.86.28-1.53.73-2,1.35-.47.62-.78,1.36-.92,2.22-.14.8-.14,1.65,0,2.57.13.92.33,1.78.6,2.6.35,1.07.75,2.03,1.22,2.89.47.85,1,1.58,1.61,2.17.61.59,1.27,1,1.98,1.22s1.49.2,2.33-.08c1.4-.45,2.29-1.48,2.67-3.09.38-1.61.19-3.61-.58-5.98Z"/>
        <path class="cls-4" d="M147.98,23.74c-.48.12-.97.41-1.48.85-.51.45-.83,1.05-.97,1.81-.31,1.79-.61,3.49-.89,5.09-.28,1.6-.59,3.4-.93,5.4-.12.63-.23,1.32-.33,2.04-.11.73-.2,1.42-.27,2.09l-1.48.23-6.58-11.9-2.67,13.34-1.43.22c-1.27-2.44-2.51-4.85-3.73-7.26-1.22-2.4-2.3-4.49-3.23-6.27-.27-.51-.69-.89-1.26-1.12-.57-.23-1.1-.34-1.6-.32l-.18-1.15,7.64-1.19.19,1.22c-.38.07-.79.2-1.21.38s-.62.41-.58.68c0,.05.04.14.11.29.06.14.14.3.22.46.56,1.16,1.19,2.45,1.89,3.87.7,1.42,1.61,3.27,2.72,5.55l2.45-12.99,1.68-.26,6.35,11.45c.26-1.63.52-3.2.79-4.73.27-1.53.49-2.95.66-4.28.04-.31.07-.6.11-.86.04-.26.04-.51,0-.76-.03-.21-.15-.38-.36-.51-.21-.13-.46-.23-.74-.29-.25-.06-.51-.09-.79-.09-.28,0-.48,0-.61.02l-.17-1.11,6.51-1.01.17,1.11Z"/>
        <path class="cls-4" d="M182.14,17.85c-.2,0-.52.05-.96.17s-.76.23-.96.36c-.48.25-.8.44-.98.58-.18.14-.52.51-1.04,1.12-1.01,1.22-1.94,2.46-2.81,3.72-.87,1.26-1.96,2.87-3.27,4.82-.49.72-.82,1.3-.99,1.74s-.29,1.1-.36,1.97l-.35,4.75c-.03.42.03.79.17,1.11.15.32.42.59.81.81.24.11.67.26,1.29.44.62.18,1.12.29,1.51.33l-.09,1.24-11.64-.86.09-1.25c.33,0,.82,0,1.48-.02.66-.02,1.12-.07,1.39-.15.43-.14.74-.36.92-.65.18-.29.29-.66.32-1.1l.45-6.05c.01-.19-.07-.54-.27-1.05s-.42-1.09-.69-1.72c-.6-1.41-1.27-2.93-2.01-4.57-.74-1.64-1.38-3.05-1.93-4.21-.34-.69-.64-1.22-.91-1.58s-.59-.68-.96-.97c-.27-.2-.59-.35-.98-.48-.38-.12-.74-.21-1.05-.25l.09-1.24,10.62.79-.09,1.24c-1.19-.06-2.04-.04-2.54.06-.5.1-.76.28-.78.54,0,.07.02.2.08.38.06.18.14.41.25.69.13.31.28.68.46,1.08.18.41.35.8.51,1.17.47,1.08.96,2.16,1.45,3.24.5,1.08,1.14,2.48,1.94,4.2,2.05-2.82,3.62-5.02,4.71-6.6,1.09-1.58,1.64-2.53,1.67-2.86.02-.27-.06-.49-.25-.67-.19-.18-.44-.33-.76-.44-.33-.12-.7-.21-1.09-.26-.4-.06-.76-.12-1.1-.18l.09-1.25,8.65.64-.09,1.24Z"/>
        <path class="cls-4" d="M198.26,36.69c-.26,1.19-.71,2.32-1.34,3.38-.63,1.07-1.39,1.92-2.26,2.57-.99.74-2.06,1.22-3.2,1.43-1.14.22-2.36.18-3.65-.11-1.08-.24-2.06-.67-2.94-1.29-.88-.62-1.62-1.41-2.2-2.35-.57-.93-.96-2-1.16-3.2-.2-1.2-.14-2.49.16-3.86.58-2.64,1.83-4.63,3.75-5.97,1.91-1.34,4.12-1.73,6.62-1.18,2.37.52,4.15,1.76,5.34,3.69s1.49,4.23.9,6.89ZM194.7,35.93c.19-.86.3-1.78.34-2.78.04-.99-.04-1.86-.24-2.6-.21-.79-.56-1.47-1.07-2.03-.5-.56-1.18-.94-2.04-1.13-.88-.2-1.68-.14-2.4.15-.72.3-1.36.78-1.92,1.45-.52.62-.96,1.36-1.3,2.21-.35.86-.61,1.71-.8,2.54-.24,1.1-.38,2.13-.41,3.11-.03.97.07,1.87.3,2.69.23.82.59,1.5,1.09,2.05.5.55,1.18.92,2.05,1.11,1.43.32,2.72-.12,3.86-1.32,1.14-1.2,1.99-3.02,2.53-5.45Z"/>
        <path class="cls-4" d="M212.58,49.23c.29.58.46,1.18.52,1.8.06.62-.05,1.32-.33,2.1-.28.78-.72,1.46-1.31,2.02-.59.56-1.33.97-2.2,1.23-.93.25-1.95.33-3.08.25s-2.45-.4-3.96-.95c-2.47-.9-4.18-1.93-5.14-3.09-.96-1.16-1.19-2.44-.68-3.83.41-1.12,1.17-1.85,2.29-2.18,1.12-.33,2.37-.27,3.76.17l.08-.23c-.29-.22-.59-.47-.89-.74s-.54-.56-.72-.85c-.2-.33-.33-.69-.4-1.07-.06-.38,0-.8.16-1.26.21-.58.61-1.05,1.21-1.39.59-.34,1.37-.53,2.33-.58l.09-.25c-.88-.88-1.47-1.81-1.77-2.8-.3-.99-.27-2,.11-3.02.56-1.54,1.6-2.6,3.11-3.17,1.51-.57,3.16-.53,4.96.12.5.18.97.41,1.42.69.45.28.91.58,1.36.92l5.68,2.07-.58,1.59-3.83-1.39-.04.1c.24.62.35,1.26.34,1.9s-.12,1.24-.32,1.79c-.52,1.43-1.54,2.43-3.06,3s-3.05.57-4.6.01l-2-.73c-.29,0-.61.06-.97.19-.36.13-.61.4-.76.79-.15.41-.15.76,0,1.06.15.3.38.55.68.74.29.2.64.39,1.05.57s.85.35,1.29.53c.48.19,1.13.46,1.96.82.82.36,1.41.61,1.76.75.5.21.96.51,1.4.92.43.41.79.88,1.07,1.42ZM209.84,52.76c.22-.62.27-1.18.12-1.68-.14-.5-.48-.93-1.01-1.28-.29-.16-.91-.44-1.85-.84-.94-.4-2.04-.83-3.31-1.3-1.27-.2-2.26-.12-2.96.24-.7.36-1.21.97-1.52,1.83-.14.39-.19.78-.15,1.2s.21.84.5,1.29c.28.43.71.85,1.3,1.27.58.42,1.34.8,2.28,1.14,1.62.59,3.01.74,4.16.46,1.16-.29,1.97-1.06,2.43-2.33ZM211.63,37.95c.47-1.29.58-2.41.33-3.37-.25-.96-.84-1.61-1.79-1.95-.52-.19-1-.24-1.45-.16-.45.08-.86.28-1.23.59-.35.28-.67.66-.95,1.14-.28.48-.52.99-.71,1.53-.44,1.22-.54,2.32-.29,3.28s.8,1.6,1.65,1.91c.95.34,1.82.23,2.61-.35.79-.58,1.4-1.45,1.82-2.62Z"/>
        <path class="cls-4" d="M229.19,59.19c-.58-.08-1.08-.16-1.51-.24-.43-.08-.87-.25-1.34-.49-.81-.42-1.36-.95-1.65-1.58-.29-.63-.31-1.35-.06-2.14l-.09-.05c-1.07.4-2.09.59-3.07.58-.98,0-2.02-.29-3.11-.86-1.15-.6-1.92-1.45-2.3-2.54-.38-1.09-.27-2.21.33-3.35.31-.59.67-1.08,1.08-1.46.41-.38.88-.67,1.41-.87.42-.18.91-.28,1.46-.3.55-.02,1.06,0,1.5.04.56.07,1.68.23,3.36.5,1.68.27,2.84.39,3.48.38l.8-1.54c.07-.14.18-.41.32-.82.14-.41.21-.84.2-1.28,0-.49-.13-.98-.36-1.46-.23-.48-.69-.91-1.39-1.27-.48-.25-.96-.4-1.46-.45s-.87-.03-1.13.06c-.11.21-.22.54-.33,1-.11.46-.26.86-.44,1.2-.19.36-.53.61-1.01.74-.48.13-1.02.05-1.6-.26-.52-.27-.81-.65-.86-1.15-.05-.5.04-.97.28-1.43.25-.48.66-.85,1.22-1.11.57-.26,1.21-.42,1.93-.48.62-.05,1.31,0,2.08.14.77.14,1.47.38,2.11.71.87.45,1.6.91,2.19,1.37s1.04,1.02,1.37,1.69c.33.66.46,1.39.39,2.2-.07.8-.37,1.73-.91,2.77-.77,1.49-1.47,2.8-2.1,3.93-.63,1.13-1.3,2.38-2.01,3.74-.21.41-.31.76-.29,1.08.02.31.13.63.33.94.11.18.33.35.66.54.33.19.68.37,1.03.55l-.52,1ZM228.03,48.13c-1.02-.2-1.93-.35-2.72-.44-.8-.1-1.58-.1-2.34-.03-.7.08-1.33.29-1.89.62-.55.33-1,.83-1.35,1.49-.45.87-.55,1.62-.31,2.26s.71,1.14,1.41,1.5c.74.38,1.48.54,2.23.47.75-.07,1.44-.25,2.08-.54l2.9-5.34Z"/>
        <path class="cls-4" d="M256.61,65.26c.05.79-.03,1.53-.27,2.24-.23.7-.63,1.42-1.2,2.15-1.36,1.74-3.12,2.66-5.28,2.79-2.16.12-4.2-.56-6.1-2.05-.88-.69-1.65-1.51-2.31-2.47s-1.16-1.88-1.5-2.77l-1.39.54-1.11-.87,5.07-6.88,1.12.88c-.42,1.01-.74,1.97-.95,2.88-.21.91-.29,1.86-.24,2.83.05.92.28,1.79.66,2.62.39.83,1.01,1.57,1.86,2.24.64.5,1.26.85,1.86,1.06.6.2,1.17.27,1.71.2.53-.07,1.03-.26,1.5-.56.46-.3.91-.72,1.33-1.25.62-.79.97-1.69,1.06-2.72s-.17-2.06-.77-3.1c-.41-.71-.89-1.51-1.44-2.41-.55-.9-1-1.69-1.37-2.39-.72-1.36-1.07-2.69-1.05-3.98.02-1.29.54-2.58,1.55-3.88.58-.75,1.28-1.33,2.09-1.73.81-.41,1.7-.64,2.66-.71.91-.06,1.84.06,2.78.36.94.3,1.81.76,2.6,1.38.9.71,1.61,1.48,2.11,2.32.5.84.9,1.67,1.2,2.5l1.3-.5,1.11.87-4.99,6.61-1.12-.88c.38-.91.71-1.8.99-2.68.28-.88.43-1.76.46-2.63.02-.85-.13-1.65-.45-2.42-.32-.77-.9-1.47-1.73-2.12-.88-.69-1.84-.99-2.9-.91s-1.91.52-2.54,1.34c-.66.85-1.02,1.71-1.06,2.58-.04.87.18,1.78.65,2.73.42.85.86,1.65,1.33,2.39.47.74.9,1.49,1.3,2.23.37.67.69,1.36.96,2.07.27.71.44,1.41.5,2.11Z"/>
        <path class="cls-4" d="M260.3,83.68c-.77-.31-1.47-.62-2.1-.95-.64-.32-1.31-.83-2.01-1.52-1.04-1.02-1.51-2-1.42-2.93.09-.94.61-1.88,1.54-2.83l8.24-8.37-2.23-2.19,1.18-1.2,2.28,2.24,3.78-3.85,2.28,2.24-3.79,3.85,3.55,3.49-1.18,1.2-3.52-3.46-6.79,6.9c-.51.52-.92.97-1.22,1.35-.3.38-.51.77-.62,1.17-.1.37-.08.75.06,1.14.14.39.44.8.89,1.25.21.2.53.49.98.85.44.36.78.59,1,.7l-.9.91Z"/>
        <path class="cls-4" d="M272.52,99.13l-3.85-4.16.03-.36,1.71-1.38-.07-.08c-.41-.03-.85-.08-1.33-.15-.48-.06-.97-.19-1.46-.37-.58-.21-1.08-.46-1.52-.74-.44-.28-.94-.77-1.5-1.47-.96-1.19-1.31-2.42-1.03-3.67.28-1.25,1.16-2.48,2.64-3.67l6.45-5.2c.33-.27.55-.55.68-.85.12-.3.17-.64.14-1.01-.02-.25-.11-.52-.26-.81-.15-.29-.33-.58-.53-.87l.9-.73,3.96,4.24-.03.36-9.37,7.56c-.98.79-1.53,1.6-1.67,2.43-.14.84.04,1.56.53,2.17.4.5.84.89,1.31,1.15s.92.45,1.34.54c.39.09.77.15,1.13.16.37.01.68,0,.94-.05l7.64-6.16c.3-.24.52-.52.65-.84.13-.32.18-.65.16-1.01-.02-.25-.15-.55-.39-.89-.24-.34-.51-.72-.82-1.14l.9-.73,4.29,4.65-.03.36-10.7,8.63c-.31.25-.52.53-.64.83-.12.3-.16.63-.13.99.03.24.12.49.28.75.15.25.33.52.55.8l-.9.73Z"/>
        <path class="cls-4" d="M282.95,116.58l-3.43-5.02.08-.35,1.39-.83-.04-.14c-.9-.18-1.76-.54-2.59-1.09-.83-.55-1.49-1.23-1.97-2.05-.5-.85-.8-1.77-.89-2.79-.09-1.01.03-2.02.37-3.01.34-1.01.9-1.97,1.67-2.9.77-.93,1.75-1.74,2.93-2.44,1.08-.64,2.21-1.06,3.4-1.26,1.19-.2,2.34-.19,3.45.03,1.04.21,2.02.65,2.96,1.3.93.65,1.67,1.44,2.22,2.37.41.69.73,1.43.95,2.2.22.77.34,1.48.35,2.13l5.2-3.08c.42-.25.77-.55,1.03-.9.26-.35.41-.7.45-1.06.02-.4-.06-.86-.26-1.39s-.44-1.08-.73-1.66l.94-.56,3.96,5.91-.09.36-20.09,11.92c-.35.21-.61.46-.78.74s-.26.61-.27.97c0,.26.08.58.27.97.19.38.36.73.53,1.03l-1,.59ZM282.32,109.56l8.72-5.18c.21-.24.42-.54.61-.9.19-.36.34-.75.43-1.17.08-.44.09-.91.02-1.4-.07-.49-.25-1-.57-1.52-.36-.6-.84-1.07-1.46-1.39-.61-.32-1.33-.51-2.15-.55-.79-.04-1.68.09-2.68.4-1,.3-2.03.77-3.09,1.39-.85.5-1.57,1.04-2.16,1.61-.59.57-1.08,1.22-1.44,1.96-.36.69-.54,1.41-.56,2.16-.02.75.2,1.5.65,2.26.48.8,1.05,1.37,1.72,1.68.67.32,1.32.53,1.96.64Z"/>
        <path class="cls-4" d="M286.38,125.48l-3.47-7.61,1.05-.48c.13.24.27.48.41.73s.29.46.44.62c.23.25.5.4.81.43.31.03.65-.04,1.03-.21l9.73-4.44c.34-.15.62-.38.83-.66.21-.28.35-.61.42-.97.03-.26.01-.6-.08-1.03-.08-.42-.19-.8-.31-1.13l1.06-.48,2.89,5.4-.12.33-12.86,5.87c-.37.17-.65.38-.83.64-.18.25-.26.56-.24.92.01.28.04.54.08.79.04.25.12.52.22.8l-1.05.48ZM307.65,113.35c-.61.28-1.23.32-1.86.13-.64-.19-1.09-.58-1.35-1.17-.25-.54-.25-1.11,0-1.71s.65-1.02,1.21-1.27c.59-.27,1.19-.3,1.81-.1.62.2,1.05.57,1.3,1.12.28.61.3,1.2.07,1.78-.23.58-.62.99-1.17,1.24Z"/>
        <path class="cls-4" d="M300.93,140.03c-1.15.39-2.35.59-3.59.6-1.24.01-2.36-.19-3.37-.61-1.15-.47-2.11-1.13-2.88-2-.78-.87-1.37-1.93-1.8-3.18-.35-1.04-.49-2.11-.42-3.18s.37-2.11.87-3.1c.5-.97,1.21-1.86,2.14-2.64.93-.79,2.06-1.41,3.39-1.86,2.56-.87,4.92-.83,7.05.12,2.14.94,3.61,2.63,4.43,5.05.78,2.3.64,4.46-.4,6.48-1.04,2.02-2.85,3.46-5.43,4.33ZM299.73,136.6c.83-.28,1.69-.66,2.56-1.14.87-.48,1.57-1,2.1-1.55.57-.59.96-1.24,1.18-1.96.22-.72.19-1.5-.09-2.33-.29-.86-.75-1.52-1.37-1.98-.63-.46-1.37-.76-2.23-.89-.8-.13-1.65-.12-2.57.03-.92.15-1.78.36-2.59.63-1.07.36-2.02.78-2.87,1.26-.85.48-1.56,1.03-2.14,1.64-.58.62-.98,1.28-1.19,1.99-.21.71-.18,1.49.11,2.33.47,1.39,1.51,2.27,3.13,2.62,1.62.36,3.61.14,5.97-.66Z"/>
      </g>
    </g>
  </g>
</svg>