<?xml version="1.0" encoding="UTF-8"?>
<svg xmlns="http://www.w3.org/2000/svg" version="1.1" viewBox="0 0 111.78 61.67">
  <defs>
    <style>
      .cls-1 {
        stroke: #231815;
        stroke-width: 3px;
      }

      .cls-1, .cls-2 {
        fill: none;
        stroke-miterlimit: 10;
      }

      .cls-2 {
        stroke: #213d96;
      }

      .cls-3 {
        fill: #231815;
      }

      .cls-4 {
        display: none;
      }
    </style>
  </defs>
  <!-- Generator: Adobe Illustrator 28.7.8, SVG Export Plug-In . SVG Version: 1.2.0 Build 200)  -->
  <g>
    <g id="_レイヤー_1" data-name="レイヤー_1" class="cls-4">
      <g>
        <path class="cls-3" d="M81.39,5.49h-3.24l-1.52-4.76h-9.08l-1.54,4.76h-3.09l7.25-21.82h4.07l7.15,21.82ZM75.78-1.92l-3.69-11.67-3.69,11.67h7.38Z"/>
        <path class="cls-3" d="M89.94-8.87h-4.96v-2.4h7.9V3.07h4.99v2.42h-13.44v-2.42h5.51v-11.94ZM90.96-18.3c.32,0,.62.06.9.18.28.12.52.28.73.49.21.21.37.45.48.73.12.27.18.57.18.89s-.06.61-.18.88c-.12.28-.28.52-.48.73s-.45.38-.73.49c-.28.12-.58.18-.9.18s-.62-.06-.9-.18c-.28-.12-.52-.28-.73-.49-.21-.21-.37-.46-.48-.73-.12-.28-.18-.57-.18-.88s.06-.62.18-.89.28-.51.48-.73c.21-.21.45-.38.73-.49.28-.12.58-.18.9-.18Z"/>
        <path class="cls-3" d="M116.05,4.87c-.76.29-1.53.5-2.33.64-.8.14-1.62.21-2.46.21-2.65,0-4.69-.72-6.12-2.15-1.43-1.44-2.15-3.53-2.15-6.29,0-1.32.21-2.53.62-3.61.41-1.08.99-2,1.74-2.77.75-.77,1.64-1.36,2.67-1.78s2.18-.63,3.42-.63c.87,0,1.68.06,2.44.18.76.12,1.48.32,2.17.6v2.77c-.72-.38-1.46-.65-2.21-.83-.75-.17-1.53-.26-2.33-.26-.75,0-1.45.14-2.11.43-.66.28-1.24.69-1.74,1.23-.5.53-.9,1.19-1.19,1.95s-.43,1.64-.43,2.6c0,2.03.49,3.54,1.48,4.55.98,1.01,2.35,1.51,4.1,1.51.79,0,1.56-.09,2.3-.27.74-.18,1.46-.45,2.15-.8v2.7Z"/>
        <path class="cls-3" d="M135.3,5.49h-2.91V-5.21c0-1.29-.24-2.26-.73-2.9-.48-.64-1.18-.96-2.08-.96-.39,0-.75.05-1.09.16-.34.11-.69.29-1.06.55-.37.26-.77.62-1.2,1.06-.43.44-.94,1-1.5,1.67V5.49h-2.91v-23.59h2.91v6.83l-.1,2.64c.46-.54.9-1,1.34-1.38.44-.37.88-.68,1.32-.91.44-.23.89-.4,1.34-.5.46-.1.93-.15,1.42-.15,1.67,0,2.96.51,3.87,1.53.91,1.02,1.37,2.55,1.37,4.6V5.49Z"/>
        <path class="cls-3" d="M146.34-8.87h-4.96v-2.4h7.9V3.07h4.99v2.42h-13.44v-2.42h5.51v-11.94ZM147.36-18.3c.32,0,.62.06.9.18.28.12.52.28.73.49.21.21.37.45.48.73s.17.57.17.89-.06.61-.17.88c-.12.28-.28.52-.48.73s-.45.38-.73.49c-.28.12-.58.18-.9.18s-.62-.06-.9-.18c-.28-.12-.52-.28-.73-.49s-.37-.46-.48-.73c-.12-.28-.18-.57-.18-.88s.06-.62.18-.89c.12-.27.28-.51.48-.73.21-.21.45-.38.73-.49.28-.12.58-.18.9-.18Z"/>
      </g>
      <g>
        <path class="cls-3" d="M79.55,32.77c-.81-.43-1.65-.77-2.5-1.01-.86-.24-1.79-.36-2.81-.36-1.16,0-2.19.21-3.09.62-.9.41-1.66.99-2.28,1.74-.62.75-1.09,1.66-1.42,2.71-.33,1.06-.49,2.23-.49,3.51s.13,2.53.4,3.59c.27,1.06.68,1.95,1.25,2.69.57.73,1.29,1.3,2.18,1.69.88.39,1.94.58,3.18.58.21,0,.44-.01.68-.03s.49-.05.73-.09c.24-.04.48-.09.71-.14.23-.06.43-.12.61-.18v-6.95h-4.46v-2.45h7.4v11.15c-.46.21-.94.4-1.44.57s-1.02.31-1.55.42c-.53.11-1.05.19-1.58.25-.52.06-1.03.08-1.52.08-1.49,0-2.84-.23-4.03-.7-1.2-.47-2.21-1.16-3.06-2.08-.84-.92-1.49-2.06-1.94-3.43-.45-1.37-.68-2.96-.68-4.76s.25-3.4.75-4.82c.5-1.42,1.21-2.62,2.11-3.61.91-.99,2-1.74,3.27-2.25s2.68-.78,4.22-.78c.98,0,1.91.09,2.8.26.89.17,1.73.45,2.55.83v2.96Z"/>
        <path class="cls-3" d="M95,50.86l-.07-2.25c-.91.9-1.84,1.55-2.78,1.95-.94.4-1.93.6-2.96.6-.96,0-1.78-.12-2.45-.37-.68-.24-1.24-.58-1.68-1.01-.44-.43-.76-.93-.97-1.51-.21-.58-.31-1.21-.31-1.89,0-1.68.63-3,1.88-3.95,1.25-.95,3.1-1.43,5.55-1.43h3.47v-1.47c0-.99-.32-1.78-.95-2.38-.63-.6-1.6-.89-2.9-.89-.95,0-1.88.11-2.8.32-.92.21-1.87.51-2.85.9v-2.62c.37-.13.78-.26,1.23-.39s.93-.24,1.43-.34c.5-.1,1.02-.18,1.57-.24.55-.06,1.1-.09,1.65-.09,1.01,0,1.93.11,2.74.33s1.5.56,2.06,1.02.99,1.03,1.29,1.72c.3.69.45,1.5.45,2.44v11.55h-2.6ZM94.68,43.23h-3.69c-.72,0-1.35.07-1.87.22-.52.14-.95.35-1.29.62-.33.27-.58.59-.74.96-.16.37-.24.79-.24,1.26,0,.32.05.63.15.93s.26.56.48.78.51.41.87.54c.36.13.79.2,1.3.2.67,0,1.43-.2,2.3-.61.86-.41,1.77-1.05,2.73-1.93v-2.97Z"/>
        <path class="cls-3" d="M114.98,50.86v-12.04c0-.52-.02-.95-.06-1.29-.04-.33-.1-.6-.18-.79-.08-.19-.19-.33-.32-.41-.13-.08-.29-.12-.48-.12-.22,0-.43.07-.62.2-.19.13-.39.35-.61.65-.22.3-.46.7-.72,1.19s-.57,1.1-.93,1.83v10.77h-2.65v-11.72c0-.61-.02-1.11-.06-1.49s-.1-.67-.18-.89c-.08-.21-.19-.36-.33-.43-.13-.08-.29-.12-.48-.12-.2,0-.39.06-.57.17s-.38.31-.59.6c-.22.29-.46.68-.73,1.19-.27.5-.58,1.14-.95,1.92v10.77h-2.67v-16.76h2.22l.13,3.19c.29-.63.57-1.17.84-1.62s.55-.8.84-1.08c.29-.27.6-.47.93-.6.33-.13.69-.19,1.09-.19.9,0,1.59.29,2.05.88.47.59.7,1.5.7,2.74.27-.58.53-1.09.78-1.54.26-.45.53-.83.83-1.14.29-.31.62-.54.98-.7.36-.16.77-.24,1.24-.24,2.1,0,3.16,1.62,3.16,4.86v12.2h-2.67Z"/>
        <path class="cls-3" d="M127.54,36.5h-4.96v-2.4h7.9v14.34h4.99v2.42h-13.44v-2.42h5.51v-11.94ZM128.56,27.06c.32,0,.62.06.9.18.28.12.52.28.73.49.21.21.37.45.48.73s.17.57.17.89-.06.61-.17.88c-.12.28-.28.52-.48.73s-.45.38-.73.49c-.28.12-.58.18-.9.18s-.62-.06-.9-.18c-.28-.12-.52-.28-.73-.49s-.37-.46-.48-.73c-.12-.28-.18-.57-.18-.88s.06-.62.18-.89c.12-.27.28-.51.48-.73.21-.21.45-.38.73-.49.28-.12.58-.18.9-.18Z"/>
        <path class="cls-3" d="M140.63,34.09h2.59l.12,2.7c.49-.58.96-1.06,1.42-1.44.46-.38.9-.69,1.34-.93.44-.23.89-.4,1.34-.49.46-.09.93-.14,1.42-.14,1.72,0,3.03.51,3.92,1.53s1.33,2.55,1.33,4.6v10.94h-2.91v-10.7c0-1.31-.24-2.28-.73-2.91s-1.22-.94-2.19-.94c-.36,0-.7.05-1.04.16-.34.11-.69.29-1.06.55-.37.26-.76.62-1.19,1.06-.43.44-.91,1-1.44,1.67v11.12h-2.91v-16.76Z"/>
        <path class="cls-3" d="M171.5,36.46c.31.39.55.84.73,1.36.17.52.26,1.08.26,1.68,0,.87-.16,1.66-.48,2.38-.32.72-.76,1.33-1.34,1.84-.58.51-1.27.91-2.08,1.19-.81.28-1.7.43-2.66.43-.7,0-1.36-.07-1.97-.23-.61-.15-1.1-.34-1.45-.56-.21.31-.39.61-.53.89s-.22.59-.22.93c0,.42.2.77.61,1.05s.94.43,1.61.45l4.41.17c.83.02,1.61.13,2.31.32.71.19,1.31.46,1.82.82.51.36.9.8,1.19,1.32.28.52.43,1.13.43,1.82,0,.75-.16,1.45-.48,2.12-.32.67-.82,1.25-1.49,1.76-.67.51-1.53.91-2.56,1.21-1.04.3-2.27.45-3.69.45s-2.51-.11-3.46-.33c-.95-.22-1.73-.52-2.35-.9-.61-.38-1.06-.84-1.34-1.37-.28-.53-.42-1.11-.42-1.74,0-.81.19-1.52.57-2.14.38-.61.96-1.2,1.75-1.77-.29-.13-.54-.3-.75-.5-.21-.2-.38-.42-.52-.66-.13-.24-.23-.49-.3-.76-.07-.27-.1-.53-.1-.78,0-.72.17-1.39.51-1.99s.74-1.17,1.21-1.7c-.21-.26-.4-.51-.56-.75-.16-.24-.3-.51-.42-.79-.12-.28-.21-.59-.27-.92s-.09-.7-.09-1.13c0-.87.16-1.66.48-2.38s.76-1.33,1.34-1.84c.57-.51,1.26-.91,2.07-1.19.81-.28,1.7-.43,2.68-.43.41,0,.81.03,1.19.08.38.06.71.13,1,.22h6.08v2.37h-2.69ZM161.41,53.28c0,.79.41,1.37,1.24,1.73.82.36,1.97.54,3.44.54.92,0,1.7-.08,2.33-.25s1.13-.39,1.52-.66c.38-.27.66-.58.83-.94s.25-.71.25-1.08c0-.68-.28-1.18-.83-1.5s-1.41-.51-2.55-.57l-4.38-.15c-.37.24-.67.48-.91.72-.24.23-.43.47-.56.71s-.23.48-.28.72c-.06.24-.08.48-.08.73ZM162.3,39.57c0,.53.09,1.02.27,1.47.18.45.43.82.75,1.14.32.31.7.55,1.14.73.44.17.93.26,1.46.26.58,0,1.09-.1,1.54-.29.45-.19.83-.46,1.14-.79.31-.33.54-.72.7-1.15.16-.43.24-.88.24-1.35,0-.53-.09-1.02-.27-1.47s-.43-.82-.75-1.14c-.32-.31-.7-.55-1.14-.73-.44-.17-.93-.26-1.46-.26-.58,0-1.09.1-1.54.3-.45.2-.83.46-1.13.79-.31.33-.54.71-.7,1.14s-.24.88-.24,1.35Z"/>
      </g>
      <g>
        <path class="cls-3" d="M78.49,76.94h-9.27v7.08h8.78v2.49h-8.78v9.72h-3.04v-21.82h12.3v2.54Z"/>
        <path class="cls-3" d="M84.91,79.46h2.65l.08,3.09c.99-1.19,1.97-2.05,2.93-2.59.96-.53,1.93-.8,2.91-.8,1.74,0,3.05.56,3.95,1.69s1.31,2.79,1.24,5.01h-2.94c.03-1.47-.18-2.53-.64-3.2s-1.14-.99-2.03-.99c-.39,0-.78.07-1.18.21s-.8.36-1.22.67c-.42.31-.86.7-1.33,1.18s-.97,1.06-1.5,1.74v10.77h-2.94v-16.76Z"/>
        <path class="cls-3" d="M117.62,87.7c0,1.3-.18,2.5-.55,3.58-.37,1.09-.9,2.01-1.59,2.79-.69.77-1.53,1.38-2.52,1.8s-2.11.64-3.37.64-2.28-.19-3.23-.56-1.76-.92-2.42-1.64c-.66-.72-1.17-1.62-1.52-2.69s-.53-2.3-.53-3.69c0-1.3.18-2.49.55-3.56.37-1.07.9-2,1.59-2.77.69-.77,1.53-1.37,2.52-1.8.99-.43,2.11-.64,3.37-.64s2.28.19,3.23.56,1.76.92,2.42,1.64c.66.72,1.17,1.61,1.52,2.68.35,1.07.53,2.29.53,3.67ZM114.65,87.84c0-1.04-.11-1.94-.34-2.71-.23-.77-.55-1.42-.98-1.94-.42-.52-.94-.91-1.54-1.17-.61-.26-1.28-.39-2.03-.39-.87,0-1.61.17-2.23.51s-1.12.79-1.52,1.36c-.4.57-.68,1.23-.87,1.98s-.28,1.54-.28,2.36c0,1.04.11,1.94.34,2.72.23.78.55,1.43.98,1.94s.94.91,1.54,1.17c.6.26,1.28.39,2.04.39.87,0,1.61-.17,2.23-.51.62-.34,1.12-.79,1.52-1.36.39-.57.68-1.23.87-1.98.18-.75.28-1.54.28-2.38Z"/>
        <path class="cls-3" d="M121.83,79.46h2.59l.12,2.7c.49-.58.96-1.06,1.42-1.44.46-.38.9-.69,1.34-.93.44-.23.89-.4,1.34-.49.46-.09.93-.14,1.42-.14,1.72,0,3.03.51,3.92,1.53s1.33,2.55,1.33,4.6v10.94h-2.91v-10.7c0-1.31-.24-2.28-.73-2.91s-1.22-.94-2.19-.94c-.36,0-.7.05-1.04.16-.34.11-.69.29-1.06.55-.37.26-.76.62-1.19,1.06-.43.44-.91,1-1.44,1.67v11.12h-2.91v-16.76Z"/>
        <path class="cls-3" d="M154.13,95.99c-.66.17-1.33.29-2.04.36-.7.07-1.41.11-2.14.11-2.1,0-3.67-.48-4.71-1.43s-1.55-2.41-1.55-4.38v-8.75h-4.69v-2.44h4.69v-4.61l2.91-.75v5.36h7.53v2.44h-7.53v8.51c0,1.2.32,2.1.96,2.7.64.6,1.58.89,2.83.89.53,0,1.12-.04,1.75-.12.63-.08,1.3-.21,1.99-.39v2.5Z"/>
        <path class="cls-3" d="M165.14,81.86h-4.96v-2.4h7.9v14.34h4.99v2.42h-13.44v-2.42h5.51v-11.94ZM166.15,72.43c.32,0,.62.06.9.18.28.12.52.28.73.49.21.21.37.45.48.73s.17.57.17.89-.06.61-.17.88c-.12.28-.28.52-.48.73s-.45.38-.73.49c-.28.12-.58.18-.9.18s-.62-.06-.9-.18c-.28-.12-.52-.28-.73-.49s-.37-.46-.48-.73c-.12-.28-.18-.57-.18-.88s.06-.62.18-.89c.12-.27.28-.51.48-.73.21-.21.45-.38.73-.49.28-.12.58-.18.9-.18Z"/>
        <path class="cls-3" d="M192.38,86.95c0,.41,0,.76-.02,1.04-.01.28-.03.54-.05.78h-11.77c0,1.71.48,3.03,1.44,3.95.96.92,2.34,1.38,4.14,1.38.49,0,.98-.02,1.47-.06.49-.04.96-.09,1.42-.16.46-.07.89-.14,1.31-.23.42-.08.8-.18,1.16-.28v2.39c-.79.22-1.68.4-2.68.54s-2.03.21-3.1.21c-1.44,0-2.67-.19-3.71-.58-1.04-.39-1.88-.95-2.55-1.69s-1.15-1.65-1.47-2.72c-.32-1.07-.48-2.29-.48-3.65,0-1.18.17-2.3.51-3.35.34-1.05.83-1.98,1.49-2.77.65-.8,1.45-1.43,2.4-1.9.95-.47,2.02-.7,3.22-.7s2.2.18,3.11.55c.9.37,1.66.89,2.28,1.56.62.67,1.08,1.49,1.4,2.45s.48,2.04.48,3.23ZM189.36,86.54c.03-.75-.04-1.43-.22-2.04-.18-.62-.45-1.15-.83-1.59-.37-.44-.84-.79-1.39-1.04-.56-.25-1.2-.38-1.94-.38-.63,0-1.21.12-1.74.37-.52.25-.97.59-1.35,1.04-.38.45-.68.98-.92,1.6-.23.62-.38,1.31-.43,2.05h8.82Z"/>
        <path class="cls-3" d="M197.71,79.46h2.66l.08,3.09c.99-1.19,1.97-2.05,2.93-2.59.96-.53,1.93-.8,2.91-.8,1.74,0,3.05.56,3.95,1.69s1.31,2.79,1.24,5.01h-2.94c.03-1.47-.18-2.53-.64-3.2-.46-.66-1.14-.99-2.03-.99-.39,0-.78.07-1.18.21s-.8.36-1.22.67c-.42.31-.86.7-1.33,1.18s-.97,1.06-1.5,1.74v10.77h-2.94v-16.76Z"/>
      </g>
      <g>
        <path class="cls-3" d="M29.38,7.64c-1.26-.67-2.55-1.19-3.88-1.56s-2.77-.56-4.34-.56c-1.79,0-3.39.32-4.78.96-1.4.64-2.57,1.54-3.53,2.7-.96,1.16-1.69,2.56-2.2,4.2-.51,1.64-.76,3.45-.76,5.43s.21,3.92.62,5.56c.41,1.64,1.06,3.02,1.94,4.16.88,1.14,2,2.01,3.37,2.61,1.37.6,3.01.9,4.92.9.33,0,.68-.02,1.06-.05.38-.03.76-.08,1.14-.14.38-.06.75-.13,1.1-.22.35-.09.67-.18.94-.28v-10.75h-6.9v-3.8h11.45v17.26c-.71.33-1.45.62-2.24.88-.78.26-1.59.47-2.4.65s-1.63.3-2.44.39c-.81.09-1.59.13-2.35.13-2.31,0-4.39-.36-6.24-1.09-1.85-.72-3.43-1.8-4.73-3.22-1.3-1.42-2.3-3.19-3-5.31s-1.05-4.57-1.05-7.37.39-5.26,1.16-7.46,1.86-4.06,3.27-5.58c1.4-1.52,3.09-2.69,5.07-3.49,1.97-.8,4.15-1.2,6.53-1.2,1.52,0,2.96.13,4.33.4,1.37.27,2.68.69,3.94,1.28v4.57Z"/>
        <path class="cls-3" d="M29.69,50.55h-14.51v11.08h13.75v3.9h-13.75v15.21h-4.76v-34.16h19.26v3.97Z"/>
        <g>
          <rect class="cls-3" x="-68.1" y="-16.56" width="114.81" height="8.83"/>
          <rect class="cls-3" x="-121.35" y="36.43" width="114.81" height="8.83" transform="translate(-104.79 -23.1) rotate(-90)"/>
          <rect class="cls-3" x="-68.36" y="89.42" width="114.81" height="8.83"/>
          <path class="cls-3" d="M-19.73,36.65h-5.01l-2.35-7.37h-14.06l-2.38,7.37h-4.78L-37.1,2.87h6.31l11.06,33.78ZM-28.42,25.17l-5.71-18.07-5.71,18.07h11.42Z"/>
          <g>
            <rect class="cls-3" x="-51.02" y="56.3" width="4.02" height="4.02"/>
            <rect class="cls-3" x="-25.45" y="74.85" width="4.02" height="4.02"/>
            <rect class="cls-3" x="-28.9" y="74.85" width="4.02" height="4.02"/>
            <rect class="cls-3" x="-32.92" y="74.85" width="4.02" height="4.02"/>
            <rect class="cls-3" x="-36.94" y="70.83" width="4.02" height="4.02"/>
            <rect class="cls-3" x="-40.97" y="66.81" width="4.02" height="4.02"/>
            <rect class="cls-3" x="-34.93" y="56.3" width="4.02" height="4.02"/>
            <rect class="cls-3" x="-38.95" y="52.28" width="4.02" height="4.02"/>
            <rect class="cls-3" x="-42.98" y="48.26" width="4.02" height="4.02"/>
            <rect class="cls-3" x="-47" y="52.28" width="4.02" height="4.02"/>
            <rect class="cls-3" x="-24.78" y="56.3" width="4.02" height="4.02"/>
            <rect class="cls-3" x="-8.69" y="56.3" width="4.02" height="4.02"/>
            <rect class="cls-3" x="-12.71" y="52.28" width="4.02" height="4.02"/>
            <rect class="cls-3" x="-16.73" y="48.26" width="4.02" height="4.02"/>
            <rect class="cls-3" x="-20.75" y="52.28" width="4.02" height="4.02"/>
            <rect class="cls-3" x="-21.43" y="70.83" width="4.02" height="4.02"/>
            <rect class="cls-3" x="-17.4" y="66.81" width="4.02" height="4.02"/>
          </g>
        </g>
      </g>
    </g>
    <g id="_レイヤー_3" data-name="レイヤー_3">
      <circle class="cls-2" cx="30.06" cy="42.62" r="1.62"/>
      <polyline class="cls-2" points="28.44 42.62 23.22 42.62 21.18 45.21 13.44 45.21"/>
      <polyline class="cls-2" points="17.16 45.21 19.02 49.35 26.42 49.35"/>
      <polyline class="cls-2" points="11.28 48.18 15.42 48.18 17.16 52.44 24.06 52.44"/>
      <polyline class="cls-2" points="41.31 53.61 33.84 53.61 30.06 51.27"/>
      <line class="cls-2" x1="38.22" y1="53.61" x2="35.21" y2="51.51"/>
      <line class="cls-2" x1="40.37" y1="47.28" x2="31.01" y2="47.28"/>
      <circle class="cls-2" cx="25.56" cy="52.56" r="1.62"/>
      <polyline class="cls-2" points="1.5 6.39 11.28 6.39 16.26 9.15"/>
      <circle class="cls-2" cx="17.67" cy="10.05" r="1.62"/>
      <polyline class="cls-2" points="2.01 10.05 10.38 10.05 16.26 15.29 25.56 15.29"/>
      <line class="cls-2" x1="2.01" y1="15.29" x2="11.28" y2="15.47"/>
      <polyline class="cls-2" points="47.94 5.67 30.54 5.67 25.56 9.15"/>
      <polyline class="cls-2" points="45.18 9.15 36.18 9.15 34.14 11.67 25.56 11.67"/>
      <line class="cls-2" x1="31.68" y1="11.67" x2="30.06" y2="14.19"/>
      <line class="cls-2" x1="38.22" y1="16.71" x2="29.46" y2="16.71"/>
      <circle class="cls-2" cx="28.44" cy="16.71" r="1.38"/>
    </g>
    <g id="_レイヤー_2" data-name="レイヤー_2">
      <polyline class="cls-1" points="1.5 57.21 51.35 3.82 51.18 58.23"/>
      <line class="cls-1" x1="21.18" y1="35.91" x2="52.86" y2="35.91"/>
      <polyline class="cls-1" points="41.16 36.23 41.34 57.21 1.5 57.21 1.5 1.53 52.86 1.53"/>
      <line class="cls-1" x1="2.01" y1="21.11" x2="35.21" y2="21.11"/>
      <g>
        <path class="cls-3" d="M65.53,3l1.83,12.29h-3.27l-.17-2.21h-1.14l-.19,2.21h-3.3l1.63-12.29h4.62ZM63.84,10.9c-.16-1.39-.32-3.11-.49-5.16-.33,2.35-.53,4.07-.61,5.16h1.1Z"/>
        <path class="cls-3" d="M71.28,3v1.6h-3.16v-1.6h3.16ZM71.28,5.21v10.07h-3.16V5.21h3.16Z"/>
        <path class="cls-3" d="M79.47,9.02h-2.89v-1.16c0-.4-.03-.68-.1-.82-.07-.14-.19-.22-.36-.22s-.3.06-.36.19-.09.41-.09.85v4.75c0,.36.05.63.14.81.09.18.23.27.4.27.21,0,.35-.09.42-.28.07-.19.11-.54.11-1.06v-1.2h2.73c0,.8-.03,1.41-.09,1.81s-.22.81-.51,1.24c-.29.42-.66.74-1.12.96-.46.22-1.03.32-1.71.32-.87,0-1.55-.15-2.06-.44s-.86-.71-1.07-1.24c-.21-.53-.31-1.29-.31-2.27v-2.86c0-.85.09-1.5.26-1.94.17-.44.54-.82,1.1-1.16.56-.34,1.24-.51,2.05-.51s1.48.17,2.05.51c.57.34.94.77,1.13,1.28.19.52.28,1.25.28,2.19Z"/>
        <path class="cls-3" d="M83.76,3v2.76c.26-.24.55-.43.85-.55.31-.12.63-.18.98-.18.54,0,.99.14,1.37.41.38.27.61.59.69.94.08.36.12,1.01.12,1.95v6.94h-3.07v-7.09c0-.59-.03-.96-.09-1.13-.06-.17-.19-.25-.39-.25-.19,0-.31.09-.38.26-.07.17-.1.51-.1,1.02v7.19h-3.07V3h3.07Z"/>
        <path class="cls-3" d="M92.3,3v1.6h-3.16v-1.6h3.16ZM92.3,5.21v10.07h-3.16V5.21h3.16Z"/>
      </g>
      <g>
        <path class="cls-3" d="M67.25,28.14h-3.2v-1.12c0-.7-.03-1.14-.09-1.32-.06-.18-.21-.27-.43-.27-.2,0-.33.08-.4.23-.07.15-.11.54-.11,1.17v5.9c0,.55.04.91.11,1.09.07.17.21.26.42.26.23,0,.39-.1.47-.3s.12-.58.12-1.15v-1.46h-.65v-1.87h3.74v6.6h-2.01l-.3-.88c-.22.38-.49.66-.82.85-.33.19-.72.28-1.17.28-.54,0-1.04-.13-1.51-.39-.47-.26-.82-.58-1.07-.97-.24-.38-.4-.79-.46-1.21-.06-.42-.09-1.06-.09-1.9v-3.65c0-1.17.06-2.03.19-2.56s.49-1.02,1.09-1.46c.6-.44,1.38-.66,2.33-.66s1.71.19,2.33.58c.62.38,1.02.84,1.21,1.37.19.53.28,1.3.28,2.3v.53Z"/>
        <path class="cls-3" d="M71.44,29.74h-2.88v-.68c0-.78.09-1.38.27-1.8s.54-.8,1.08-1.12,1.24-.49,2.11-.49c1.04,0,1.82.18,2.35.55.53.37.84.82.95,1.35.11.53.16,1.63.16,3.3v5.05h-2.98v-.9c-.19.36-.43.63-.72.81-.3.18-.65.27-1.06.27-.54,0-1.03-.15-1.48-.45-.45-.3-.67-.96-.67-1.98v-.83c0-.75.12-1.27.36-1.54.24-.27.83-.59,1.77-.96,1.01-.39,1.55-.66,1.62-.8s.11-.42.11-.83c0-.53-.04-.87-.12-1.03-.08-.16-.21-.24-.39-.24-.21,0-.34.07-.39.2-.05.13-.08.48-.08,1.04v1.06ZM72.42,31.12c-.49.36-.78.66-.85.9-.08.24-.12.59-.12,1.05,0,.52.03.86.1,1.01s.2.23.41.23.32-.06.38-.18c.06-.12.09-.43.09-.94v-2.07Z"/>
        <path class="cls-3" d="M79.88,25.84l-.05.96c.24-.38.52-.67.85-.86.33-.19.7-.29,1.12-.29.82,0,1.46.38,1.94,1.14.26-.38.55-.67.87-.86s.68-.29,1.08-.29c.52,0,.95.13,1.29.38.34.25.56.56.66.93.1.37.14.96.14,1.79v7.16h-2.98v-6.56c0-.86-.03-1.39-.09-1.6-.06-.21-.19-.31-.41-.31s-.36.1-.42.3c-.06.2-.09.74-.09,1.6v6.56h-2.98v-6.4c0-.99-.02-1.58-.07-1.78-.05-.2-.18-.3-.4-.3-.14,0-.25.05-.35.16-.1.1-.15.23-.16.38,0,.15-.02.47-.02.95v6.98h-2.98v-10.07h3.03Z"/>
        <path class="cls-3" d="M92.3,23.62v1.6h-3.16v-1.6h3.16ZM92.3,25.84v10.07h-3.16v-10.07h3.16Z"/>
        <path class="cls-3" d="M96.83,25.84l-.05.93c.22-.37.49-.65.82-.83s.69-.28,1.11-.28c.53,0,.96.12,1.29.37.33.25.55.56.65.94.1.38.14,1.01.14,1.89v7.06h-3.07v-6.98c0-.69-.02-1.12-.07-1.27-.05-.15-.17-.23-.38-.23s-.35.09-.41.26c-.06.17-.08.64-.08,1.4v6.81h-3.07v-10.07h3.12Z"/>
        <path class="cls-3" d="M109.12,25.84v7.76c0,1.05-.02,1.72-.07,2.03-.05.31-.22.63-.51.97-.29.34-.7.6-1.23.78-.52.18-1.18.27-1.98.27-.98,0-1.76-.17-2.35-.5-.59-.33-.9-.98-.92-1.95h2.98c0,.45.16.67.49.67.23,0,.39-.07.46-.21.08-.14.11-.42.11-.86v-.76c-.26.24-.54.42-.83.54s-.6.18-.91.18c-.55,0-1.01-.11-1.36-.33-.36-.22-.6-.51-.73-.88-.13-.36-.2-.88-.2-1.54v-3.66c0-.96.17-1.64.52-2.06.34-.42.87-.63,1.57-.63.38,0,.73.08,1.05.24.32.16.6.39.85.71l.22-.76h2.85ZM106.04,28.51c0-.46-.03-.75-.08-.88s-.17-.19-.35-.19-.3.07-.38.22c-.07.14-.11.43-.11.85v3.38c0,.45.03.74.08.88.06.13.17.2.35.2.2,0,.33-.08.4-.24.06-.16.09-.53.09-1.1v-3.12Z"/>
      </g>
      <g>
        <path class="cls-3" d="M59.92,44.24h5.41v2.46h-2.22v2.33h1.97v2.34h-1.97v5.16h-3.2v-12.29Z"/>
        <path class="cls-3" d="M69.39,46.46l-.12,1.32c.45-.95,1.09-1.45,1.94-1.51v3.54c-.56,0-.97.08-1.24.23-.26.15-.42.36-.49.63-.06.27-.09.89-.09,1.87v3.98h-3.07v-10.07h3.07Z"/>
        <path class="cls-3" d="M79.13,50v2.47c0,.91-.05,1.57-.14,1.99-.09.42-.29.82-.58,1.18-.3.37-.68.64-1.15.81-.47.17-1.01.26-1.61.26-.68,0-1.25-.07-1.72-.22-.47-.15-.84-.37-1.1-.68-.26-.3-.45-.67-.56-1.09-.11-.43-.17-1.07-.17-1.92v-2.58c0-.94.1-1.67.3-2.19.2-.53.57-.95,1.09-1.27.53-.32,1.2-.48,2.02-.48.69,0,1.28.1,1.77.31.49.21.87.47,1.14.8.27.33.45.67.55,1.02s.15.88.15,1.59ZM76.07,49.24c0-.52-.03-.84-.08-.98-.06-.13-.17-.2-.36-.2s-.3.07-.36.2c-.06.13-.09.46-.09.98v4.55c0,.48.03.79.09.93.06.14.18.22.36.22s.3-.07.36-.2c.06-.13.09-.41.09-.85v-4.65Z"/>
        <path class="cls-3" d="M83.57,46.46l-.05.93c.22-.37.49-.65.82-.83s.69-.28,1.11-.28c.53,0,.96.12,1.29.37.33.25.55.56.65.94.1.38.14,1.01.14,1.89v7.06h-3.07v-6.98c0-.69-.02-1.12-.07-1.27-.05-.15-.17-.23-.38-.23s-.35.09-.41.26c-.06.17-.08.64-.08,1.4v6.81h-3.07v-10.07h3.12Z"/>
        <path class="cls-3" d="M92.13,45.12v1.59h.83v1.59h-.83v5.39c0,.66.03,1.03.1,1.11.07.08.35.11.85.11v1.62h-1.24c-.7,0-1.2-.03-1.5-.09-.3-.06-.56-.19-.79-.4-.23-.21-.37-.45-.42-.72-.06-.27-.08-.91-.08-1.91v-5.12h-.66v-1.59h.66v-1.59h3.07Z"/>
        <path class="cls-3" d="M97.1,44.24v1.6h-3.16v-1.6h3.16ZM97.1,46.46v10.07h-3.16v-10.07h3.16Z"/>
        <path class="cls-3" d="M105.45,51.67h-3.97v2.18c0,.46.03.75.1.88.07.13.19.2.38.2.23,0,.39-.09.47-.26.08-.17.12-.51.12-1.01v-1.33h2.91v.74c0,.62-.04,1.1-.12,1.43-.08.33-.26.69-.55,1.07-.29.38-.65.66-1.1.85-.44.19-1,.28-1.67.28s-1.22-.09-1.72-.28c-.5-.19-.88-.44-1.16-.77-.28-.33-.47-.69-.57-1.08s-.16-.96-.16-1.71v-2.94c0-.88.12-1.57.36-2.08.24-.51.63-.9,1.17-1.17s1.16-.41,1.87-.41c.86,0,1.57.16,2.13.49.56.33.95.76,1.18,1.3.23.54.34,1.3.34,2.27v1.34ZM102.38,50.03v-.74c0-.52-.03-.86-.08-1.01-.06-.15-.17-.23-.34-.23-.21,0-.34.06-.39.19-.05.13-.08.48-.08,1.04v.74h.9Z"/>
        <path class="cls-3" d="M109.83,46.46l-.12,1.32c.45-.95,1.09-1.45,1.94-1.51v3.54c-.56,0-.97.08-1.24.23-.26.15-.42.36-.49.63-.06.27-.09.89-.09,1.87v3.98h-3.07v-10.07h3.07Z"/>
      </g>
    </g>
  </g>
</svg>